# xmcd
#
# Track frame offsets: 
#        150
#        14500
#        24642
#        37192
#        49330
#        59410
#        70902
#        87370
#        101702
#        109675
#        124440
#        137255
#        149557
#        160572
#        180695
#        194475
#        210900
#        223925
#        243997
#        258005
#        273247
#
# Disc length: 3816 seconds
#
# Revision: 3
# Processed by: cddbd v1.5.2PL0 Copyright (c) Steve Scherf et al.
# Submitted via: ExactAudioCopy v1.0b4
#
DISCID=3b0ee615
DTITLE=Clifton Chenier - Bon Ton Roulet! And More
DYEAR=1990
DGENRE=Cajun, Zydeco, Blues
TTITLE0=Bon Ton Roulet
TTITLE1=Frog Legs
TTITLE2=If I Ever Get Lucky
TTITLE3=Black Gal
TTITLE4=Long Toes
TTITLE5=Baby, Please Don't Go
TTITLE6=Houston Boogie
TTITLE7=Blues de Ma Negresse
TTITLE8=Sweet Little Doll (Cher Catin)
TTITLE9=Jole Blonde
TTITLE10=Ay, Ai, Ai
TTITLE11=French Town Waltz
TTITLE12=Keep on Scratching
TTITLE13=Black Snake Blues
TTITLE14=Let's Talk It Over
TTITLE15=Walking to Louisiana
TTITLE16=Key to the Highway
TTITLE17=Things Ain't Like They Used to Be
TTITLE18=I Got a Little Girl
TTITLE19=I'm on the Wonder
TTITLE20=Jump the Boogie
EXTD=
EXTT0=
EXTT1=
EXTT2=
EXTT3=
EXTT4=
EXTT5=
EXTT6=
EXTT7=
EXTT8=
EXTT9=
EXTT10=
EXTT11=
EXTT12=
EXTT13=
EXTT14=
EXTT15=
EXTT16=
EXTT17=
EXTT18=
EXTT19=
EXTT20=
PLAYORDER=
